<?xml version="1.0" standalone="no"?>
<!DOCTYPE svg PUBLIC "-//W3C//DTD SVG 20010904//EN"
 "http://www.w3.org/TR/2001/REC-SVG-20010904/DTD/svg10.dtd">
<svg version="1.0" xmlns="http://www.w3.org/2000/svg"
 width="512.000000pt" height="512.000000pt" viewBox="0 0 512.000000 512.000000"
 preserveAspectRatio="xMidYMid meet">
<metadata>
Created by potrace 1.11, written by Peter Selinger 2001-2013
</metadata>
<g transform="translate(0.000000,512.000000) scale(0.100000,-0.100000)"
fill="#000000" stroke="none">
<path d="M970 2561 l0 -981 205 0 205 0 0 245 0 245 128 0 127 -1 159 -244
158 -245 235 0 c185 0 233 3 227 13 -4 6 -92 138 -194 292 -102 154 -189 285
-193 291 -4 7 20 28 64 54 148 88 249 230 285 400 20 92 13 304 -11 395 -56
202 -206 363 -411 441 -155 59 -217 66 -616 71 l-368 5 0 -981z m721 605 c125
-27 208 -86 248 -177 48 -109 48 -281 0 -384 -25 -52 -93 -118 -146 -140 -65
-28 -180 -45 -299 -45 l-114 0 0 380 0 380 123 0 c67 0 152 -7 188 -14z"/>
<path d="M2740 2560 l0 -980 205 0 205 0 0 273 0 272 91 108 c49 59 93 105 97
103 4 -2 122 -174 262 -380 l254 -376 244 0 c192 0 242 3 236 13 -4 6 -169
247 -367 535 -248 362 -356 526 -350 535 48 63 631 855 637 865 6 9 -41 12
-221 12 l-229 0 -279 -376 c-212 -287 -294 -406 -342 -498 -35 -66 -62 -107
-59 -91 15 82 26 353 26 643 l0 322 -205 0 -205 0 0 -980z"/>
</g>
</svg>
